<svg xmlns="http://www.w3.org/2000/svg" viewBox="0 0 512 512" width="512" height="512" role="img" aria-label="Comanda, marchio completo, per fondi scuri">
<title>Comanda, marchio completo, per fondi scuri</title>
<!-- Comanda · marchio · v1 · 2026-09-19 · regole in officina/branding/design-system.md -->
<g transform="rotate(-8 256 256)"><path d="M150 118 L382 118 L382 336 L304 424 L150 424 Z" fill="#FAF6EF"/><path d="M382 336 L304 424 L378 408 Z" fill="#D9D2C6"/><g fill="#1D1A17"><rect x="171.0" y="84" width="9" height="34" rx="4.5"/><circle cx="175.5" cy="120" r="14"/><rect x="216.0" y="84" width="9" height="34" rx="4.5"/><circle cx="220.5" cy="120" r="14"/><rect x="261.0" y="84" width="9" height="34" rx="4.5"/><circle cx="265.5" cy="120" r="14"/><rect x="306.0" y="84" width="9" height="34" rx="4.5"/><circle cx="310.5" cy="120" r="14"/><rect x="351.0" y="84" width="9" height="34" rx="4.5"/><circle cx="355.5" cy="120" r="14"/></g><rect x="196" y="186" width="156" height="30" rx="15" fill="#1D1A17"/><rect x="186" y="242" width="156" height="30" rx="15" fill="#1D1A17"/><rect x="176" y="298" width="156" height="30" rx="15" fill="#B8412A"/></g>
</svg>
